# xmcd CD database file
#
# Track frame offsets:
#	150
#	17276
#	41755
#	58295
#	77566
#	92740
#	104839
#	126257
#	148561
#	173291
#	188529
#	207508
#
# Disc length: 3090 seconds
#
# Revision: 0
# Processed by: cddbd v1.5.1PL0 Copyright (c) Steve Scherf et al.
# Submitted via: CDex 1.51
#
DISCID=9e0c100c
DTITLE=Jazz Preachers - Just Preaching
DYEAR=2005
DGENRE=Jazz
TTITLE0=Sister Sadie
TTITLE1=Doxy
TTITLE2=Just Preaching
TTITLE3=Cry Me a River
TTITLE4=Along Came Wilma
TTITLE5=The Old Country
TTITLE6=Soft Winds
TTITLE7=Dear Old Stockholm
TTITLE8='Round Midnight
TTITLE9=Roll Call
TTITLE10=Bye Bye Blackbird
TTITLE11=Well, You Needn't
EXTD=YEAR: 2005
EXTT0=
EXTT1=
EXTT2=
EXTT3=
EXTT4=
EXTT5=
EXTT6=
EXTT7=
EXTT8=
EXTT9=
EXTT10=
EXTT11=
PLAYORDER=
